<svg xmlns="http://www.w3.org/2000/svg" width="575.92739" height="623.45484" viewBox="0 0 575.92739 623.45484" xmlns:xlink="http://www.w3.org/1999/xlink"><polygon points="216.58035 539.9325 429.58035 530.45484 548.58038 623.45484 147.58035 623.45484 216.58035 539.9325" fill="#f2f2f2"/><g><path d="M386.80707,91.60808h0c-8.69516-6.16032-20.65326-4.67169-27.57294,3.43229l-35.71313,41.82619-80.00739-10.69311-14.8103-2.96184c-3.20844-2.83478-7.04875-4.86034-11.20053-5.90578-10.34741-2.7596-20.15894,.34329-21.91386,6.92913-1.75453,6.58527,5.21106,14.15898,15.56265,16.91806,4.12016,1.15828,8.45738,1.31371,12.64993,.45235l6.03453,1.52776,90.69528,33.29387,66.95804-51.70844c10.95728-8.46163,10.61407-25.10721-.68228-33.11046v-.00003Z" fill="#ffb6b6"/><g><polygon points="369.81851 66.43944 356.76099 43.21849 335.61984 62.03794 341.03992 93.11251 369.81851 66.43944" fill="#ffb6b6"/><circle cx="321.50146" cy="40.06634" r="32.77515" fill="#ffb6b6"/><path d="M329.45651,50.62064l-18.93283-3.31782-2.70486-10.75806s-16.83813,23.69092-23.2338,2.27172C278.18933,17.39729,307.91974-.22841,316.7514,.05061c8.83167,.27902,34.74286-2.79216,39.32391,14.50309,4.58105,17.29525,3.80731,36.18941,3.80731,36.18941l-10.2782,.73613s-11.16672-15.91203-14.27551-12.65086c-3.1088,3.26116-5.87244,11.79226-5.87244,11.79226h.00003Z" fill="#2f2e41"/></g><path d="M287.71594,336.91297l-8.56723,78.5329,37.59833,114.13776c1.56683,4.75647,2.01355,9.81061,1.30533,14.76813h0c-1.14468,8.01263-5.2373,15.31006-11.47748,20.46503l-21.21533,17.5257c-1.18683,.98047-1.73889,2.53375-1.43698,4.04327h0c.49628,2.48138,3.06583,3.95654,5.45889,3.13391l26.99176-9.27838c9.38748-3.22693,19.24536-4.87396,29.172-4.87396h4.98407c3.9501,0,7.15231-3.20221,7.15231-7.15228h0c0-.9342-.18301-1.85938-.53873-2.72327l-9.45636-22.96545-25.70166-121.36902,7.13934-41.40826-41.40826-42.83612v.00006Z" fill="#ffb6b6"/><path d="M346.25864,371.18186l7.13934,47.11972,18.56232,117.08539-7.13934,25.70166-29.65555,24.16376c-3.85718,3.14288-2.72961,9.30518,1.99057,10.87854h0c1.27542,.42517,2.65332,.43182,3.93283,.0191l42.29443-13.64337,11.47601-4.09857c5.10587-1.82355,8.51419-6.65991,8.51419-12.08167h0c0-1.57458-.28986-3.13574-.8551-4.60541l-6.28424-16.33905-6.42542-126.36655,.71393-46.40579-44.26398-1.42786v.00009Z" fill="#ffb6b6"/><path d="M309.21347,252.84986l-7.72012-83.81769c-1.53036-16.61713,2.47855-33.57309,11.28842-47.74721l19.47705-31.24583,37.58548-28.91159,16.51184,14.26058c9.65417,8.33715,14.2334,21.31208,11.95145,33.86312l-16.34662,89.90706,2.89828,34.77925-75.64575,18.91231h-.00003Z" fill="#29a1ad"/><path d="M400.54211,536.81482h-29.89465l-.10388-.58984-30.20071-170.66818-16.90646,52.07126,21.51569,104.71283-28.38589,7.46985-43.4357-104.75885c-3.50833-8.46124-4.21249-18.01291-1.98074-26.89807l37.2355-148.24754,75.89886-17.28923,.27121,.22729c33.80106,28.28271,10.12338,66.87704,8.11612,70.00052l7.87073,233.96997h-.00006Z" fill="#2f2e41"/><path d="M573.547,305.21396c-2.19861,5.96875-5.79688,11.18033-10.38068,15.29245-4.58344,4.12674-10.15198,7.13934-16.32043,8.6962-40.57996,10.23773-137.88959,26.78653-245.83636-12.55103-16.73459-6.11169-33.58356-11.95145-50.60365-17.23416-29.27135-9.0957-55.30141-18.83423-78.4189-28.84326-10.62328-4.59805-20.61838-9.23862-30.02817-13.92175-12.69362-6.29713-24.34492-12.6368-34.99712-18.93393-10.48035-6.16815-20.00448-12.29376-28.65711-18.29111C17.71975,177.44811,0,142.00861,0,142.00861c0,0,34.7545-17.14839,109.28928-20.01877,10.69474-.41414,22.20345-.52848,34.55441-.27121,12.57962,.27121,26.01576,.94262,40.33734,2.12716,10.63757,.85686,21.74644,2.01352,33.35521,3.46998,38.20949,4.81209,81.75954,13.03629,130.86421,26.11581,167.00372,44.46408,212.26715,95.78168,224.3186,123.15384,3.98383,9.06711,4.255,19.3334,.82794,28.62854Z" fill="#e6e6e6"/><path d="M368.39621,79.53718h0c-10.65536-.13735-19.65622,7.8749-20.75433,18.47447l-5.66687,54.70599-71.94293,36.60243-13.87503,5.96666c-4.25049-.51314-8.562-.00139-12.5737,1.49409-10.08572,3.60036-16.40308,11.72346-14.11034,18.14191,2.29276,6.41776,12.32619,8.70039,22.41505,5.09724,4.0497-1.38464,7.70898-3.71819,10.67209-6.80679l5.83557-2.16692,83.83585-21.55695c6.05762-1.55762,10.89038-6.1178,12.79666-12.07491l22.72089-71.00292c4.21948-13.18549-5.50998-26.69588-19.35294-26.87437l.00003,.00005Z" fill="#ffb6b6"/><path d="M143.84367,121.71862l-36.88201,115.99986c-10.48035-6.16815-20.00448-12.29376-28.65711-18.29111l30.98472-97.43753c10.69474-.41414,22.20347-.52848,34.55441-.27122Z" fill="#3f3d56"/><path d="M217.53622,127.31578l-45.54929,143.25838c-10.62328-4.59805-20.61838-9.23862-30.02817-13.92175l42.22223-132.80661c10.63757,.85686,21.74644,2.01352,33.35521,3.46998h.00002Z" fill="#3f3d56"/></g><path d="M380.92563,168.86345l-47.948-10.14848,14.48788-68.44855c1.18454-5.59714,4.47812-10.39808,9.2735-13.51876,4.79465-3.11928,10.51801-4.18182,16.11584-3.00076l6.03986,1.27867c11.55405,2.44579,18.9639,13.83529,16.51883,25.38933l-14.48788,68.44854-.00003,.00002Z" fill="#29a1ad"/></svg>